<?xml version="1.0" encoding="UTF-8"?>
<svg version="1.1" xmlns="http://www.w3.org/2000/svg" width="300" height="300">
<path d="M0 0 C99 0 198 0 300 0 C300 99 300 198 300 300 C201 300 102 300 0 300 C0 201 0 102 0 0 Z " fill="#137555" transform="translate(0,0)"/>
<path d="M0 0 C99 0 198 0 300 0 C300 126.87289931 300 126.87289931 295.27124023 131.80200195 C290.41342878 135.95326805 285.37911714 139.64733537 280.0625 143.1875 C278.37819294 144.32446485 276.69461361 145.4625084 275.01171875 146.6015625 C274.1717334 147.16907227 273.33174805 147.73658203 272.46630859 148.32128906 C268.73855024 150.85861498 265.05384465 153.45495073 261.375 156.0625 C260.68075928 156.55395508 259.98651855 157.04541016 259.27124023 157.55175781 C257.17998237 159.03331879 255.08979793 160.51638057 253 162 C243.29050074 168.89310749 233.53666259 175.70828529 223.69091797 182.40576172 C218.51522907 185.93527464 213.42609587 189.54644791 208.421875 193.31640625 C205.9834263 195.01152139 203.45351497 196.44679494 200.86572266 197.89916992 C197.54384686 199.85917227 194.442919 202.12621531 191.3125 204.375 C189.81811766 205.44067839 188.32330727 206.50575672 186.828125 207.5703125 C186.04630859 208.12750977 185.26449219 208.68470703 184.45898438 209.25878906 C181.91519598 211.06004987 179.35840437 212.84125728 176.796875 214.6171875 C161.69704444 224.93941088 161.69704444 224.93941088 148 237 C147.47380592 224.82307326 147.0419515 212.64671479 146.72804165 200.46236038 C146.57932906 194.80329688 146.39909483 189.1490323 146.14477539 183.49365234 C145.90018457 178.02806842 145.74107705 172.56585812 145.63926888 167.09581757 C145.5859041 165.01699737 145.50253263 162.93871007 145.38778496 160.86237335 C144.54311449 145.0610979 144.54311449 145.0610979 148.61268997 139.9907074 C152.59650954 136.36082869 157.04173999 133.74349193 161.78776741 131.23604584 C165.39698812 129.21945759 168.64306948 126.73673208 171.9375 124.25 C177.6883947 120 177.6883947 120 180 120 C180.31377065 117.64359317 180.31377065 117.64359317 180 115 C176.07589547 110.44545617 170.44733554 107.63982919 165.14038086 104.99414062 C149.69909126 96.90858076 149.69909126 96.90858076 146.78594971 88.49267578 C145.24443243 79.27460838 145.77833876 70.0542286 146.42071533 60.76983643 C146.65884463 56.95761491 146.76161263 53.14177805 146.87695312 49.32421875 C147.12149123 41.8730805 147.51210454 34.4396001 148 27 C146.26486804 28.0978099 144.53057673 29.19694853 142.79663086 30.29663086 C141.83075546 30.90856796 140.86488007 31.52050507 139.86973572 32.15098572 C135.68840267 34.84508207 131.62252014 37.69012749 127.5625 40.5625 C125.81384748 41.79303326 124.06514823 43.02350012 122.31640625 44.25390625 C121.43484863 44.87539551 120.55329102 45.49688477 119.64501953 46.13720703 C115.43667473 49.10099426 111.21801742 52.05000357 107 55 C105.33327976 56.16659013 103.66661319 57.33325694 102 58.5 C92 65.5 92 65.5 89.49926758 67.25048828 C87.83501172 68.41548364 86.17078639 69.5805226 84.5065918 70.74560547 C80.30329077 73.68820411 76.09943819 76.63000904 71.89453125 79.5703125 C63.3962261 85.51391242 54.90693831 91.46959623 46.43945312 97.45703125 C41.77009456 100.75665296 37.08943567 104.03972236 32.40258789 107.31445312 C29.85517937 109.09516588 27.31019978 110.87930357 24.765625 112.6640625 C21.78446875 114.75469694 18.79540439 116.83281586 15.796875 118.8984375 C14.55191684 119.76538596 13.30711378 120.63255721 12.0625 121.5 C11.00160156 122.2321875 9.94070312 122.964375 8.84765625 123.71875 C5.70362856 126.23742239 3.51454854 128.86918464 1 132 C0.67 132 0.34 132 0 132 C0 88.44 0 44.88 0 0 Z " fill="#137555" transform="translate(0,0)"/>
<path d="M0 0 C-0.02966354 0.785457 -0.05932709 1.570914 -0.08988953 2.38017273 C-0.35425398 9.83788954 -0.52452302 17.28940571 -0.59327984 24.7512846 C-0.63183606 28.58706953 -0.7047327 32.41533777 -0.8605957 36.24829102 C-2.11771877 52.6557871 -2.11771877 52.6557871 2.84194946 67.6388855 C7.23090275 71.84760568 12.17431248 74.5237517 17.71418762 76.93833923 C21.0123772 78.47020532 23.67937457 80.47962044 26.5625 82.6875 C27.80193359 83.59048828 27.80193359 83.59048828 29.06640625 84.51171875 C31 86 31 86 33 88 C33.06640625 90.3046875 33.06640625 90.3046875 32 93 C29.67130826 94.92409279 27.47041644 96.51771025 24.9375 98.125 C22.91330151 99.4535761 20.89639703 100.78546229 18.90196228 102.15852356 C16.63190147 103.59901902 14.45427459 104.7821439 12.05628967 105.9683075 C4.14843755 110.13582775 4.14843755 110.13582775 -0.88119698 117.2102356 C-2.18870036 123.63157576 -1.68885701 130.13629331 -1.34375 136.63671875 C-1.29139565 138.72833544 -1.24622056 140.820143 -1.20788574 142.9120636 C-1.08840365 148.38876993 -0.87224896 153.85743565 -0.6350708 159.33013916 C-0.40993504 164.92618201 -0.27734975 170.52435598 -0.13671875 176.12304688 C0.15218519 187.08605155 0.54337974 198.04278839 1 209 C1.58701187 208.29104332 1.58701187 208.29104332 2.18588257 207.56776428 C2.71025909 206.94349045 3.23463562 206.31921661 3.77490234 205.67602539 C4.28999359 205.0590126 4.80508484 204.44199982 5.33578491 203.80628967 C8.07285192 200.83555837 11.28779477 198.68225688 14.625 196.4375 C16.13024403 195.39979136 17.63545075 194.3620286 19.140625 193.32421875 C19.92888672 192.78587402 20.71714844 192.2475293 21.52929688 191.69287109 C24.96251818 189.34050385 28.37202974 186.9549095 31.78051758 184.56689453 C33.49960206 183.36303392 35.22077279 182.16214652 36.9440918 180.96435547 C40.52454215 178.47064571 44.08420618 175.97179837 47.53515625 173.30078125 C48.49292969 172.56214844 49.45070312 171.82351562 50.4375 171.0625 C51.21996094 170.43472656 52.00242188 169.80695313 52.80859375 169.16015625 C55 168 55 168 57.34765625 167.99609375 C61.02579051 169.38825944 63.91714051 171.6185698 67 174 C68.33614427 175.0066638 69.67340399 176.01184858 71.01171875 177.015625 C71.67993652 177.51900391 72.3481543 178.02238281 73.03662109 178.54101562 C77.92185142 182.17122408 82.98268548 185.55635762 88 189 C90.44536033 190.69670386 92.88505454 192.40046954 95.31640625 194.1171875 C97.39720791 195.57708037 99.48871629 197.01520269 101.58984375 198.4453125 C102.85177175 199.31740562 104.11349143 200.18980027 105.375 201.0625 C105.97046631 201.46202881 106.56593262 201.86155762 107.17944336 202.27319336 C111.70200869 205.42890469 115.01214043 208.85828267 116.71484375 214.2734375 C117.29789104 219.77658561 116.99984163 224.23152211 114 229 C109.8429777 233.59511599 104.72711726 236.99232841 99.55078125 240.3359375 C96.49202387 242.33139025 93.49659905 244.41315233 90.5 246.5 C89.38036022 247.27365736 88.260571 248.0470985 87.140625 248.8203125 C85.2459863 250.13524832 83.35827777 251.46036595 81.484375 252.8046875 C72.80116465 258.90722345 64.67373666 261.2326625 54 260 C41.84525511 256.93393823 31.63037486 248.07560386 21.68774414 240.83251953 C16.57038415 237.10934467 11.37924198 233.54188191 6.08984375 230.06640625 C0.85935693 226.5683942 -4.2535981 222.90431424 -9.38671875 219.265625 C-14.18217108 215.86657715 -18.99563683 212.493613 -23.8125 209.125 C-24.64845703 208.54024902 -25.48441406 207.95549805 -26.34570312 207.35302734 C-28.04762075 206.16266312 -29.74960665 204.97239649 -31.45166016 203.78222656 C-36.46444387 200.27644757 -41.47522827 196.76781129 -46.48608398 193.25927734 C-50.72627839 190.2906009 -54.96758681 187.32353854 -59.2109375 184.359375 C-73.69620373 174.23700931 -73.69620373 174.23700931 -80.8125 169.125 C-88.84343614 163.35895204 -96.97774996 157.74119686 -105.09765625 152.1015625 C-113.00010004 146.61264113 -120.8868034 141.10176028 -128.7578125 135.56787109 C-130.91370484 134.06034271 -133.08007595 132.56926538 -135.25 131.08203125 C-136.52093167 130.20066262 -137.79177143 129.31916143 -139.0625 128.4375 C-140.14660156 127.69371094 -141.23070312 126.94992188 -142.34765625 126.18359375 C-146.17564024 123.03213123 -147.73049229 120.63462283 -148.5390625 115.73046875 C-148.56742188 114.56128906 -148.59578125 113.39210938 -148.625 112.1875 C-148.70621094 110.44533203 -148.70621094 110.44533203 -148.7890625 108.66796875 C-146.7939389 99.39360706 -137.72864158 94.32904727 -130.3125 89.375 C-128.25363539 87.97175149 -126.19504664 86.56809816 -124.13671875 85.1640625 C-123.10724121 84.46700195 -122.07776367 83.76994141 -121.01708984 83.05175781 C-116.5221671 79.99500666 -112.07269629 76.87488818 -107.625 73.75 C-106.80491455 73.17556152 -105.9848291 72.60112305 -105.13989258 72.00927734 C-99.22455527 67.86564647 -93.32321886 63.70239525 -87.42553711 59.53369141 C-79.48476132 53.92375324 -71.51610613 48.35372936 -63.54833984 42.78222656 C-60.19589377 40.43763408 -56.84446046 38.09159672 -53.49316406 35.74536133 C-51.82987498 34.58096124 -50.16646333 33.41673622 -48.50292969 32.25268555 C-44.32138471 29.32650279 -40.14151206 26.39798376 -35.96484375 23.46484375 C-30.98285656 19.96750998 -25.99411685 16.47998924 -21 13 C-20.1116748 12.38044434 -19.22334961 11.76088867 -18.30810547 11.12255859 C-15.667507 9.28452751 -13.02209914 7.45365288 -10.375 5.625 C-9.56281006 5.059021 -8.75062012 4.49304199 -7.91381836 3.90991211 C-7.16624268 3.39565674 -6.41866699 2.88140137 -5.6484375 2.3515625 C-4.99020996 1.89604004 -4.33198242 1.44051758 -3.65380859 0.97119141 C-2 0 -2 0 0 0 Z " fill="#0F5541" transform="translate(148,27)"/>
<path d="M0 0 C1.99553884 1.3276148 3.90513339 2.72897514 5.81152344 4.18164062 C7.29653356 5.271092 8.78224032 6.35959427 10.26855469 7.44726562 C11.03893066 8.01767578 11.80930664 8.58808594 12.60302734 9.17578125 C16.68432587 12.1666819 20.84522297 15.04275386 24.99902344 17.93164062 C31.26297332 22.30793994 37.51239284 26.70401815 43.74902344 31.11914062 C49.72522616 35.34734392 55.73864798 39.51690294 61.77832031 43.65380859 C69.70428665 49.08892232 77.5669035 54.61430251 85.43457031 60.13330078 C88.79212805 62.48781052 92.15162223 64.83954479 95.51171875 67.19042969 C97.16284393 68.34628214 98.81324155 69.50317462 100.46289062 70.66113281 C104.81356679 73.71330476 109.1771329 76.74446457 113.56152344 79.74804688 C114.47160156 80.37517578 115.38167969 81.00230469 116.31933594 81.6484375 C118.05990538 82.84729911 119.804492 84.04035669 121.55371094 85.2265625 C126.34321406 88.53603064 130.33395742 91.6015086 132.99902344 96.93164062 C133.14754188 98.86523649 133.22033176 100.8050616 133.24902344 102.74414062 C133.27480469 103.78183594 133.30058594 104.81953125 133.32714844 105.88867188 C132.65259245 112.14437564 128.81560775 115.29339438 124.22900391 119.16455078 C120.63438025 122.01301652 116.87732563 124.57832047 113.06152344 127.11914062 C111.37721638 128.25610547 109.69363704 129.39414903 108.01074219 130.53320312 C106.75076416 131.38446777 106.75076416 131.38446777 105.46533203 132.25292969 C101.73757368 134.7902556 98.05286809 137.38659135 94.37402344 139.99414062 C93.67978271 140.4855957 92.98554199 140.97705078 92.27026367 141.48339844 C90.17900581 142.96495942 88.08882136 144.4480212 85.99902344 145.93164062 C76.28952418 152.82474811 66.53568603 159.63992591 56.68994141 166.33740234 C51.5142525 169.86691526 46.4251193 173.47808854 41.42089844 177.24804688 C38.98244974 178.94316202 36.45253841 180.37843557 33.86474609 181.83081055 C30.5428703 183.7908129 27.44194244 186.05785594 24.31152344 188.30664062 C22.81714109 189.37231901 21.32233071 190.43739735 19.82714844 191.50195312 C19.04533203 192.05915039 18.26351562 192.61634766 17.45800781 193.19042969 C14.91421942 194.99169049 12.35742781 196.77289791 9.79589844 198.54882812 C-5.30393212 208.87105151 -5.30393212 208.87105151 -19.00097656 220.93164062 C-19.52717064 208.75471389 -19.95902506 196.57835541 -20.27293491 184.39400101 C-20.42164751 178.73493751 -20.60188173 173.08067292 -20.85620117 167.42529297 C-21.100792 161.95970904 -21.25989951 156.49749874 -21.36170769 151.02745819 C-21.41507246 148.94863799 -21.49844393 146.8703507 -21.6131916 144.79401398 C-22.45786207 128.99273852 -22.45786207 128.99273852 -18.38828659 123.92234802 C-14.40446702 120.29246931 -9.95923658 117.67513256 -5.21320915 115.16768646 C-1.60398844 113.15109822 1.64209292 110.66837271 4.93652344 108.18164062 C10.68741814 103.93164062 10.68741814 103.93164062 12.99902344 103.93164062 C13.31302419 101.5755846 13.31302419 101.5755846 12.99902344 98.93164062 C9.08181284 94.37772609 3.4883038 91.59420582 -1.83642578 89.00048828 C-9.61110441 85.00189192 -17.26777208 80.914127 -20.27746582 72.26208496 C-22.29562872 62.60378786 -21.66257865 52.52323321 -21.21868896 42.73339844 C-21.09442458 39.48076394 -21.06870706 36.23073856 -21.04789925 32.97603416 C-21.00421862 26.2439391 -20.89722442 19.51122503 -20.61474609 12.78466797 C-20.56980011 11.60270844 -20.52485413 10.4207489 -20.47854614 9.20297241 C-19.76270387 4.29948259 -18.34288226 0.95404497 -14.37597656 -2.06835938 C-9.28216701 -3.57763628 -4.68251483 -2.50008356 0 0 Z " fill="#20C98F" transform="translate(167.0009765625,16.068359375)"/>
<path d="M0 0 C3.41684456 1.25521297 6.21081831 2.6789001 9.14453125 4.828125 C10.28438477 5.65763672 10.28438477 5.65763672 11.44726562 6.50390625 C12.22779297 7.08011719 13.00832031 7.65632813 13.8125 8.25 C14.58142578 8.81074219 15.35035156 9.37148437 16.14257812 9.94921875 C17.67833557 11.07155289 19.20981242 12.19976937 20.73681641 13.33398438 C22.25093778 14.44858678 23.77960976 15.54367738 25.32177734 16.61914062 C26.04445801 17.13154297 26.76713867 17.64394531 27.51171875 18.171875 C28.15971436 18.62143555 28.80770996 19.07099609 29.4753418 19.53417969 C31 21 31 21 31.96801758 22.92675781 C32 25 32 25 30.34057617 27.04736328 C28.13149618 28.89029869 25.91363069 30.60180014 23.55078125 32.2421875 C22.70193359 32.83386719 21.85308594 33.42554688 20.97851562 34.03515625 C20.09873047 34.64230469 19.21894531 35.24945313 18.3125 35.875 C17.45205078 36.47441406 16.59160156 37.07382813 15.70507812 37.69140625 C14.84978516 38.28566406 13.99449219 38.87992188 13.11328125 39.4921875 C12.26709229 40.08273926 11.42090332 40.67329102 10.54907227 41.28173828 C8.85901723 42.42095937 7.13713659 43.51441329 5.38647461 44.55810547 C0.47720851 47.37856004 0.47720851 47.37856004 -2.09765625 52.2109375 C-2.08605469 53.25507813 -2.07445312 54.29921875 -2.0625 55.375 C-2.07410156 56.43460938 -2.08570313 57.49421875 -2.09765625 58.5859375 C-2.06542969 59.38257813 -2.03320312 60.17921875 -2 61 C-9.3517721 56.51474455 -16.50674516 51.7196139 -23.625 46.875 C-24.52637695 46.2773584 -25.42775391 45.6797168 -26.35644531 45.06396484 C-27.20045898 44.48340332 -28.04447266 43.9028418 -28.9140625 43.3046875 C-30.0580249 42.5310083 -30.0580249 42.5310083 -31.22509766 41.74169922 C-33.42549105 39.58246862 -33.67828559 38.01615282 -34 35 C-26.91519533 29.05625762 -19.4806617 23.79623478 -11.83203125 18.61328125 C-11.19869873 18.17733643 -10.56536621 17.7413916 -9.9128418 17.29223633 C-8.62267684 16.42065456 -7.31324722 15.5770176 -5.98754883 14.76049805 C-2.92252167 12.79533674 -1.20197005 11.64787796 -0.09765625 8.10546875 C-0.08605469 7.14253906 -0.07445312 6.17960937 -0.0625 5.1875 C-0.03285156 4.21167969 -0.00320312 3.23585938 0.02734375 2.23046875 C0.01832031 1.49441406 0.00929687 0.75835937 0 0 Z " fill="#137555" transform="translate(149,93)"/>
</svg>
